<svg xmlns="http://www.w3.org/2000/svg" viewBox="0 0 520 520" role="img" aria-labelledby="title">
  <title id="title">Bakso telur</title>
  <rect width="520" height="520" fill="#eef3ee"/>
  <ellipse cx="260" cy="390" rx="185" ry="38" fill="#23302a" opacity=".13"/>
  <path d="M96 213h328c-8 115-62 178-164 178S104 328 96 213Z" fill="#ffffff" stroke="#d4ddd6" stroke-width="10"/>
  <ellipse cx="260" cy="213" rx="180" ry="62" fill="#fbfbf6" stroke="#d4ddd6" stroke-width="10"/>
  <ellipse cx="260" cy="214" rx="142" ry="41" fill="#bf7f45"/>
  <circle cx="214" cy="189" r="48" fill="#7b5237" stroke="#4d2d1f" stroke-width="6"/>
  <circle cx="214" cy="189" r="22" fill="#f4cb42"/>
  <circle cx="307" cy="185" r="40" fill="#7b5237" stroke="#4d2d1f" stroke-width="6"/>
  <circle cx="365" cy="221" r="34" fill="#7b5237" stroke="#4d2d1f" stroke-width="6"/>
  <path d="M154 241c66-30 131 31 210-4" fill="none" stroke="#f6d96d" stroke-width="11" stroke-linecap="round"/>
  <path d="M119 188l52-25 23 48-57 25Z" fill="#eed092" stroke="#9f6a36" stroke-width="5"/>
  <g fill="#3f8c57">
    <ellipse cx="151" cy="214" rx="21" ry="8" transform="rotate(18 151 214)"/>
    <ellipse cx="337" cy="158" rx="22" ry="9" transform="rotate(-24 337 158)"/>
  </g>
</svg>
